<?xml version="1.0" encoding="UTF-8" standalone="no"?>
<!-- Created with Inkscape (http://www.inkscape.org/) -->

<svg
   width="800mm"
   height="405.66653mm"
   viewBox="0 0 800 405.66653"
   version="1.1"
   id="svg5"
   inkscape:version="1.1 (ce6663b3b7, 2021-05-25)"
   sodipodi:docname="plot.svg"
   inkscape:export-filename="/home/thekalinga/Documents/books/migrated/repo/the-peoples-verdict/images/plot.png"
   inkscape:export-xdpi="60.959999"
   inkscape:export-ydpi="60.959999"
   xmlns:inkscape="http://www.inkscape.org/namespaces/inkscape"
   xmlns:sodipodi="http://sodipodi.sourceforge.net/DTD/sodipodi-0.dtd"
   xmlns="http://www.w3.org/2000/svg"
   xmlns:svg="http://www.w3.org/2000/svg">
  <sodipodi:namedview
     id="namedview7"
     pagecolor="#ffffff"
     bordercolor="#111111"
     borderopacity="1"
     inkscape:pageshadow="0"
     inkscape:pageopacity="0"
     inkscape:pagecheckerboard="1"
     inkscape:document-units="mm"
     showgrid="false"
     inkscape:zoom="0.29102682"
     inkscape:cx="1553.1215"
     inkscape:cy="869.33569"
     inkscape:window-width="1920"
     inkscape:window-height="1056"
     inkscape:window-x="0"
     inkscape:window-y="24"
     inkscape:window-maximized="1"
     inkscape:current-layer="layer1" />
  <defs
     id="defs2" />
  <g
     inkscape:label="Layer 1"
     inkscape:groupmode="layer"
     id="layer1"
     transform="translate(210.66399,42.300003)">
    <rect
       style="fill:#ffffff"
       id="rect17993"
       width="800"
       height="405.66653"
       x="-210.66399"
       y="-42.300003" />
    <path
       style="fill:#000000"
       d="m -102.11573,283.08808 c -0.2899,-0.34931 -0.63711,-1.31305 -0.77157,-2.14166 -0.60338,-3.71821 1.63612,-6.65288 4.079177,-5.34541 0.638466,0.34169 1.160845,0.99219 1.160845,1.44555 0,0.87258 -1.105356,1.13503 -1.575626,0.37412 -0.429854,-0.69553 -1.575626,-0.53185 -1.575626,0.22508 0,0.40827 0.41741,0.67526 1.055674,0.67526 1.286242,0 2.545758,1.29822 2.545758,2.62399 0,2.17556 -3.592592,3.74087 -4.918632,2.14307 z m 2.892826,-2.09732 c 0,-0.67305 -0.298171,-1.13918 -0.789176,-1.23375 -1.01235,-0.19495 -1.50862,1.0702 -0.76925,1.96109 0.78037,0.9403 1.558426,0.57717 1.558426,-0.72734 z m 25.885298,1.25199 c 0,-0.56666 0.408151,-1.83083 0.907,-2.80929 1.11702,-2.19098 0.886375,-2.91315 -0.930386,-2.91315 -2.459639,0 -1.261901,-1.11211 1.361045,-1.26374 3.140148,-0.18153 3.515471,0.2749 2.086886,2.53792 -0.634618,1.00531 -1.410208,2.64923 -1.723538,3.65316 -0.614291,1.96827 -1.701007,2.47623 -1.701007,0.7951 z m 34.041479,0.0174 c -0.773839,-1.21888 -0.655824,-5.8676 0.174355,-6.86791 0.620634,-0.74781 2.570771,-0.88224 3.575697,-0.24647 0.452079,0.286 0.693469,1.45135 0.787916,3.80372 0.119357,2.97261 0.02864,3.44897 -0.734696,3.85749 -1.465482,0.78429 -3.108109,0.54811 -3.803272,-0.54683 z m 3.110487,-1.2577 c 0.413331,-0.6688 -0.629226,-1.77509 -1.395637,-1.48099 -0.986761,0.37864 -0.800243,1.95088 0.231433,1.95088 0.480584,0 1.004475,-0.21146 1.164204,-0.46989 z m -0.438124,-3.62092 c 0.463918,-0.75066 -0.579475,-1.61143 -1.200502,-0.99041 -0.519471,0.51946 -0.194352,1.47978 0.500991,1.47978 0.218373,0 0.533152,-0.22024 0.699511,-0.48941 z m 25.395046,4.74701 c -0.882315,-1.06312 0.167283,-1.95968 1.3959198,-1.19238 0.9182664,0.57344 1.7711667,0.38529 1.7711667,-0.39074 0,-0.233 -0.5209203,-0.42362 -1.1576042,-0.42362 -1.5529743,0 -2.4438283,-0.98464 -2.4438283,-2.70107 0,-1.77878 0.900335,-2.70108 2.6367616,-2.70108 1.9702405,0 2.7653874,1.0387 2.7653874,3.6124 0,3.34816 -0.6916327,4.49083 -2.7182131,4.49083 -0.9586474,0 -1.9194559,-0.29657 -2.2495899,-0.69435 z m 3.1858365,-4.05513 c 0.4771223,-0.57489 0.4547844,-0.82225 -0.1267659,-1.40379 -0.8177459,-0.81778 -1.6927006,-0.45457 -1.6927006,0.70265 0,1.47488 0.8920209,1.81863 1.8194665,0.70112 z m 35.2219325,4.06728 c -1.274789,-0.89289 -1.806271,-4.14735 -0.959312,-5.87422 0.793202,-1.61728 1.781705,-2.19535 3.161729,-1.84898 2.321381,0.58263 3.018537,5.34956 1.067677,7.30042 -1.281939,1.28194 -1.924809,1.36505 -3.270094,0.42278 z m 2.349275,-3.63203 c 0,-1.91326 -0.12208,-2.21338 -0.900359,-2.21338 -0.718508,0 -0.928958,0.34732 -1.041953,1.71958 -0.144998,1.76085 0.563394,3.16682 1.447155,2.87223 0.272335,-0.0909 0.495157,-1.16108 0.495157,-2.37843 z m -10.57921,1.34591 c 0,-2.13954 -0.135369,-2.55354 -0.900357,-2.75358 -0.955516,-0.24988 -1.265648,-1.48099 -0.373082,-1.48099 0.290001,0 0.884979,-0.3237 1.32217,-0.71936 1.270331,-1.14963 1.578828,-0.47003 1.488581,3.27923 -0.106222,4.41299 -0.06096,4.19282 -0.862044,4.19282 -0.519758,0 -0.675268,-0.57991 -0.675268,-2.51812 z m 37.674366,2.22739 c -0.170227,-0.17023 -0.309499,-1.38993 -0.309499,-2.71047 0,-1.83406 -0.159444,-2.40095 -0.675268,-2.40095 -0.375148,0 -0.675269,-0.40015 -0.675269,-0.90035 0,-0.5002 0.300121,-0.90036 0.675269,-0.90036 0.371397,0 0.675268,-0.20258 0.675268,-0.45018 0,-0.24759 0.378804,-0.45019 0.841786,-0.45019 0.761644,0 0.836644,0.37136 0.787814,3.90078 -0.04978,3.59861 -0.449319,4.78249 -1.320101,3.91172 z m 9.440476,-0.0136 c -0.162915,-0.16301 -0.296213,-1.37664 -0.296213,-2.69718 0,-2.10084 -0.112552,-2.40096 -0.900359,-2.40096 -0.495196,0 -0.900357,-0.26577 -0.900357,-0.59059 0,-0.62803 2.630743,-2.78105 2.976117,-2.43568 0.493098,0.49312 0.44229,7.56973 -0.05732,7.98437 -0.289106,0.23995 -0.658941,0.30295 -0.821862,0.14004 z m 21.530519,-0.60758 c -0.156841,-0.25379 -0.24957,-1.11477 -0.206047,-1.91326 0.135658,-2.4888 0.01756,-2.87607 -1.024989,-3.36123 -0.986164,-0.45894 -0.989135,-0.48065 -0.112552,-0.82267 0.495197,-0.19321 1.062359,-0.6198 1.260361,-0.94798 0.198003,-0.32816 0.653808,-0.59666 1.012904,-0.59666 0.52205,0 0.6529,0.812 0.6529,4.05161 0,3.22757 -0.131949,4.05161 -0.648701,4.05161 -0.356785,0 -0.777031,-0.20765 -0.933882,-0.46142 z m 7.284853,0.1613 c -0.735749,-0.73575 -0.161554,-2.01971 1.500596,-3.35544 0.990393,-0.7959 1.800716,-1.70511 1.800716,-2.02046 0,-1.06705 -0.961829,-1.17586 -1.975601,-0.22347 -1.273963,1.19683 -1.625831,1.19341 -1.625831,-0.0153 0,-2.0455 3.978219,-3.1071 4.936132,-1.31722 0.821528,1.53504 0.505178,2.66104 -1.109596,3.94947 -1.957006,1.5615 -1.988941,2.03034 -0.125926,1.84871 1.090433,-0.10634 1.489098,0.0539 1.608638,0.64647 0.135712,0.67276 -0.196557,0.78781 -2.275042,0.78781 -1.33868,0 -2.569021,-0.13509 -2.734083,-0.30012 z m 24.29743,-0.0119 c -0.15834,-0.15841 -0.28788,-1.36832 -0.28788,-2.68884 0,-1.79035 -0.16497,-2.40096 -0.6487,-2.40096 -1.26423,0 -1.25009,-1.01342 0.0284,-2.03282 0.71233,-0.568 1.44719,-0.93877 1.63302,-0.82392 0.18582,0.11485 0.33785,1.90683 0.33785,3.98219 0,3.47242 -0.32862,4.69838 -1.06266,3.96435 z m 7.72396,0.007 c -0.96275,-0.25341 -1.51121,-1.87266 -0.85617,-2.52771 0.35643,-0.35642 0.75708,-0.20831 1.45086,0.53637 0.88753,0.95265 1.01262,0.97419 1.69065,0.29116 0.67659,-0.68158 0.64672,-0.8048 -0.39324,-1.62211 -1.05285,-0.82746 -1.07463,-0.92364 -0.33763,-1.49123 0.89711,-0.69092 1.04741,-1.63292 0.26053,-1.63292 -0.28999,0 -0.9101,0.34646 -1.37802,0.76992 -0.71515,0.6472 -0.9131,0.66899 -1.24202,0.13679 -1.0845,-1.75475 2.43509,-3.49154 4.07254,-2.00966 0.51988,0.47049 0.85159,1.34019 0.83176,2.18076 -0.0181,0.769 0.10539,1.93544 0.27452,2.5921 0.54887,2.13102 -1.61282,3.50328 -4.37378,2.77653 z m 23.36002,-0.43467 c -0.17022,-0.17025 -0.3095,-1.36631 -0.3095,-2.65796 0,-2.05465 -0.12672,-2.38251 -1.0129,-2.62068 -1.00024,-0.26883 -0.99601,-0.28617 0.33763,-1.38579 0.7428,-0.61244 1.55312,-1.05379 1.80072,-0.98074 0.61593,0.18168 0.58919,7.58943 -0.0281,7.79522 -0.26308,0.0876 -0.6176,0.0201 -0.78782,-0.15007 z m 10.04462,-0.60963 c 0,-0.72347 -0.30012,-0.90037 -1.52746,-0.90037 -0.88405,0 -1.62797,-0.2619 -1.76606,-0.62176 -0.39604,-1.03206 3.46867,-6.35404 4.25932,-5.86538 0.2116,0.13085 0.38474,1.14019 0.38474,2.24313 0,1.10294 0.22981,2.37332 0.51069,2.82308 0.40108,0.64224 0.34166,1.0757 -0.27687,2.01969 -0.93452,1.42626 -1.58436,1.54997 -1.58436,0.30161 z m -0.0863,-3.18503 c -0.0887,-0.26616 -0.35376,-0.48393 -0.58898,-0.48393 -0.23522,0 -0.50026,0.21777 -0.58899,0.48393 -0.0887,0.26618 0.17632,0.48395 0.58899,0.48395 0.41266,0 0.67771,-0.21777 0.58898,-0.48395 z m 100.39746,3.16788 c -1.24338,-0.72549 -1.84759,-3.24657 -1.28172,-5.34805 0.48858,-1.81442 1.49503,-2.73803 2.98362,-2.73803 1.09227,0 2.418,1.30421 2.11867,2.08426 -0.21269,0.55427 -0.41266,0.54195 -1.36831,-0.0842 -0.7991,-0.52361 -1.2578,-0.59475 -1.6038,-0.24876 -0.58852,0.58852 -0.17055,1.07805 0.99369,1.16382 2.29935,0.16947 3.09478,3.05109 1.30299,4.72039 -1.07477,1.0013 -1.97918,1.13086 -3.14514,0.45057 z m 2.45092,-1.89612 c 0.3193,-0.91537 -0.15824,-1.68817 -1.04322,-1.68817 -1.01591,0 -1.42065,0.58772 -1.05714,1.53501 0.32578,0.84896 1.81965,0.9579 2.10036,0.15313 z m 25.75859,1.4543 c -0.33228,-0.53767 0.53945,-3.42635 1.42004,-4.70571 0.90685,-1.31751 0.77657,-1.51997 -1.07696,-1.67337 -2.71268,-0.22453 -1.94256,-1.02796 1.12545,-1.17412 3.20924,-0.15296 3.30973,0.007 1.73815,2.75495 -0.59155,1.03447 -1.31629,2.64055 -1.61057,3.56904 -0.53481,1.6875 -1.06197,2.09345 -1.59611,1.22921 z m 34.82627,0.16572 c -1.06454,-0.29478 -1.92114,-2.56504 -1.36202,-3.60979 0.24535,-0.4584 0.34609,-1.35641 0.22393,-1.99558 -0.26945,-1.40936 0.82441,-2.6548 2.3316,-2.6548 1.53965,0 2.59375,1.24437 2.36641,2.79348 -0.10481,0.71378 -0.0216,1.40209 0.18463,1.5296 0.5642,0.3487 0.4508,2.15845 -0.1876,2.99419 -0.61274,0.80214 -2.37668,1.26973 -3.55695,0.9429 z m 2.31896,-2.35968 c 0,-0.98341 -0.93849,-1.48141 -1.7946,-0.95231 -0.83643,0.51694 -0.20843,1.80451 0.88011,1.80451 0.59717,0 0.91449,-0.29573 0.91449,-0.8522 z m -0.53589,-3.53705 c -0.18272,-0.94891 -0.98171,-0.88907 -1.18528,0.0888 -0.0849,0.40786 0.16317,0.69905 0.59572,0.69905 0.46368,0 0.68445,-0.29505 0.58956,-0.78781 z m 25.59062,4.91651 c -0.4098,-0.45279 -0.74506,-0.95923 -0.74506,-1.12543 0,-0.49211 1.57864,-0.34419 2.12164,0.1988 0.27552,0.27554 0.7212,0.36488 0.99041,0.19851 0.76043,-0.46998 0.57673,-1.14968 -0.31081,-1.14968 -1.41301,0 -2.80124,-1.31663 -2.80124,-2.65684 0,-1.62224 1.26698,-2.74531 3.09714,-2.74531 1.24025,0 1.5489,0.23523 2.1284,1.62226 1.6862,4.03554 -1.87683,8.5347 -4.48048,5.65769 z m 3.08147,-4.57887 c 0,-0.70293 -0.29082,-1.16913 -0.78918,-1.26511 -0.89112,-0.17161 -1.47064,0.90632 -1.06106,1.97365 0.42933,1.11886 1.85024,0.57475 1.85024,-0.70854 z m 27.28261,4.78325 c -0.31535,-0.37998 -0.47039,-1.44738 -0.36434,-2.50814 0.15807,-1.58114 0.017,-1.96992 -0.98688,-2.70407 -1.12086,-0.82034 -1.13257,-0.87215 -0.27118,-1.19751 0.49519,-0.18702 1.1795,-0.72855 1.5207,-1.20336 0.95821,-1.33344 1.39168,-0.17163 1.39168,3.73017 0,3.76439 -0.39687,4.95902 -1.28998,3.88291 z m 7.88749,-0.21943 c -1.63621,-1.80801 -1.75574,-5.26313 -0.24503,-7.08344 0.72952,-0.87897 2.83464,-0.7896 3.67823,0.1562 0.65704,0.73663 1.00431,2.71853 0.85282,4.86707 -0.0849,1.20292 -1.67264,2.89851 -2.71431,2.89851 -0.44716,0 -1.15444,-0.37725 -1.57171,-0.83833 z m 2.58628,-1.9753 c 0.44486,-1.66002 0.32404,-2.8145 -0.39151,-3.74048 -0.66844,-0.86503 -0.68212,-0.86503 -1.35054,0 -0.78553,1.01652 -0.87312,2.64217 -0.20924,3.88262 0.62777,1.17301 1.61821,1.10086 1.95129,-0.14207 z m 27.14445,2.06331 c -0.16505,-0.16504 -0.30012,-1.26776 -0.30012,-2.45045 0,-1.69389 -0.20665,-2.29508 -0.97357,-2.83224 l -0.97356,-0.68191 1.0861,-0.90426 c 1.96112,-1.63281 2.21156,-1.27979 2.21156,3.11737 0,3.71604 -0.23756,4.56439 -1.05041,3.75149 z m 9.32424,-0.23818 c -0.18799,-0.30416 -0.29563,-1.23807 -0.23926,-2.07535 0.13408,-1.99083 -0.28479,-3.23867 -1.08713,-3.23867 -0.35471,0 -0.64494,-0.16453 -0.64494,-0.36551 0,-0.54418 2.55509,-2.3315 2.8753,-2.0113 0.15177,0.15177 0.27596,1.95219 0.27596,4.00089 0,3.54543 -0.43276,4.89884 -1.17993,3.68994 z m 21.74749,-0.2026 c -0.17021,-0.17023 -0.3095,-1.38994 -0.3095,-2.71046 0,-1.83406 -0.15942,-2.40096 -0.67527,-2.40096 -1.03987,0 -0.77521,-1.032 0.50366,-1.96395 1.65796,-1.20821 2.03252,-0.50173 1.87999,3.54616 -0.12149,3.22261 -0.5711,4.35699 -1.39888,3.52921 z m 6.89336,-0.83899 c 0,-0.8085 0.50718,-1.48051 1.78362,-2.36344 1.74988,-1.21037 2.29488,-2.46137 1.33166,-3.05668 -0.2674,-0.16521 -0.78532,0.12676 -1.15097,0.6487 -0.83161,1.1873 -1.96431,1.23399 -1.96431,0.081 0,-1.25483 1.21648,-2.28306 2.70108,-2.28306 1.65558,0 2.70107,1.06383 2.70107,2.74841 0,1.04678 -0.33871,1.53341 -1.57494,2.26282 -1.56582,0.92384 -1.72756,1.85138 -0.29844,1.71116 1.41802,-0.13918 1.87338,0.0323 1.87338,0.70558 0,0.52521 -0.60022,0.67526 -2.70107,0.67526 -2.58376,0 -2.70108,-0.049 -2.70108,-1.12972 z m 24.59757,0.81737 c -0.15841,-0.15841 -0.28789,-1.24231 -0.28789,-2.40883 0,-1.69131 -0.2052,-2.26324 -1.0129,-2.82326 l -1.0129,-0.7023 1.35054,-1.13714 c 0.74279,-0.62542 1.50246,-1.14442 1.68816,-1.15334 0.18569,-0.008 0.33763,1.79508 0.33763,4.00886 0,3.6968 -0.31846,4.96021 -1.06264,4.21601 z m 7.46532,-0.38845 c -1.09331,-0.76578 -1.36489,-2.45045 -0.39503,-2.45045 0.33303,0 0.95978,0.39149 1.39286,0.87 0.43302,0.4785 1.07214,0.76069 1.42031,0.6271 0.83256,-0.3195 0.81941,-1.94729 -0.0153,-1.94729 -1.18705,0 -1.30081,-1.00934 -0.20678,-1.83455 1.01048,-0.76222 1.02394,-0.83013 0.22473,-1.13682 -0.56358,-0.21625 -1.03442,-0.074 -1.39726,0.42226 -0.73844,1.00988 -1.57343,0.94632 -1.57343,-0.11979 0,-1.16608 1.18502,-2.28304 2.4221,-2.28304 1.78799,0 2.40793,0.94464 2.71188,4.13214 0.26439,2.77276 0.20812,3.06174 -0.72307,3.71398 -1.28062,0.89696 -2.58611,0.89915 -3.86055,0.007 z m 23.61864,-0.0401 c -0.17021,-0.17023 -0.30949,-1.36631 -0.30949,-2.65796 0,-2.05464 -0.12676,-2.38249 -1.0129,-2.62068 -1.00026,-0.26882 -0.99602,-0.28615 0.33764,-1.38578 0.74279,-0.61246 1.55311,-1.05378 1.80071,-0.98074 0.61593,0.18168 0.5892,7.58943 -0.0279,7.79521 -0.26308,0.0876 -0.61759,0.0203 -0.78781,-0.15007 z m 9.98835,0.0657 c -0.031,-0.12386 -0.0815,-0.47831 -0.11247,-0.78781 -0.0311,-0.30951 -0.66401,-0.62896 -1.4068,-0.70992 -0.74281,-0.081 -1.51324,-0.30439 -1.71203,-0.49655 -0.39954,-0.38613 1.14821,-3.29208 2.59019,-4.86318 1.47491,-1.60695 2.048,-1.28791 2.048,1.14019 0,1.18847 0.22679,2.38763 0.50397,2.66481 0.62296,0.62296 -0.4212,3.27755 -1.28913,3.27755 -0.31099,0 -0.59068,-0.10124 -0.62166,-0.22509 z m -0.39391,-3.62801 c 0,-0.38601 -0.20586,-0.57459 -0.4575,-0.41907 -0.25165,0.15551 -0.34098,0.47135 -0.19853,0.70184 0.38589,0.62442 0.65603,0.50798 0.65603,-0.28277 z m -405.97893,-5.1861 c -0.54653,-0.87513 -0.65387,-0.88963 -1.66807,-0.22509 -1.47735,0.968 -1.71052,0.89788 -1.38095,-0.4152 0.26819,-1.06856 -0.17712,-1.39452 -1.6221,-1.18739 -0.17147,0.0245 -28.836629,0.24933 -63.70034,0.49945 -34.863714,0.25013 -73.213726,0.5572 -85.222255,0.68241 -12.008528,0.12522 -31.799065,0.3292 -43.97897,0.45335 -12.179903,0.12421 -22.232765,0.0742 -22.339695,-0.1111 -0.10692,-0.18523 -0.34431,-18.56904 -0.52753,-40.8529 -0.18321,-22.28387 -0.39066,-41.22515 -0.46098,-42.09176 -0.0703,-0.86659 -0.1762,-15.08149 -0.23527,-31.58865 -0.10472,-29.26868 -0.12903,-30.01869 -0.97995,-30.2412 -0.75582,-0.19766 -0.79981,-0.36412 -0.32877,-1.24427 0.46715,-0.87287 0.40844,-1.12567 -0.41649,-1.79366 -1.30041,-1.05301 -1.20728,-1.6705 0.2777,-1.84137 1.12599,-0.12955 1.2355,-0.30537 1.21043,-1.94316 -0.0151,-0.99039 -0.18952,-27.579098 -0.38748,-59.086009 -0.26924,-42.852373 -0.23038,-57.285295 0.15424,-57.285295 0.28279,0 0.59273,0.2532256 0.68876,0.5627236 0.22395,0.7217289 0.69229,58.9659384 0.69524,86.4609614 0.001,13.071609 0.1633,20.972909 0.42642,20.810289 0.2333,-0.14418 0.54668,-1.21969 0.69641,-2.39001 0.14973,-1.17032 0.45777,-3.34334 0.68453,-4.82893 0.22675,-1.48559 0.62746,-4.119138 0.89045,-5.852328 0.5263,-3.468383 2.11357,-13.091277 2.428579,-14.723342 0.947329,-4.908154 2.542706,-12.583654 3.442893,-16.564108 0.195981,-0.866595 0.889433,-3.601432 1.540999,-6.077418 0.651567,-2.475984 1.370143,-5.210823 1.596835,-6.077418 1.082046,-4.136435 3.874629,-11.511975 6.061478,-16.009067 2.12499,-4.369893 5.574905,-9.591662 6.622845,-10.024283 0.197242,-0.08143 0.817139,-0.550253 1.377548,-1.041832 0.705063,-0.61846 0.845591,-0.965754 0.456204,-1.127455 -0.962762,-0.3998 -0.620897,-0.934829 0.775806,-1.21417 0.943864,-0.188769 1.422833,-0.603572 1.624431,-1.406808 0.383035,-1.526122 0.897163,-1.435749 1.4889,0.261716 0.410735,1.178235 0.65991,1.357758 1.568155,1.129801 0.685821,-0.172132 1.282996,-0.0262 1.636638,0.399899 0.306249,0.369001 0.865268,0.670914 1.242265,0.670914 0.377004,0 2.187277,0.722348 4.022842,1.605218 8.258289,3.972079 15.320682,14.946927 19.680107,30.582591 0.690337,2.475984 1.438832,4.906952 1.663323,5.402149 1.054197,2.325422 2.114617,3.602324 3.002091,3.614955 1.526125,0.02169 1.745146,0.658479 0.541038,1.572955 -0.911073,0.691929 -1.027494,0.999562 -0.627226,1.657383 0.623039,1.023932 0.325188,1.959207 -0.520582,1.634654 -0.753563,-0.289167 -0.803506,0.255499 -0.228979,2.497212 0.229461,0.895321 0.650427,3.349791 0.935482,5.45438 0.285053,2.104587 0.789748,5.548456 1.121549,7.653044 0.331796,2.104587 0.833988,5.548458 1.115984,7.653045 0.281997,2.104588 0.701595,5.143297 0.932443,6.752683 0.230848,1.60939 0.732652,5.55972 1.115125,8.7785 0.382477,3.21878 0.879601,7.1691 1.104721,8.77849 0.416786,2.9796 0.804502,5.91804 2.049275,15.53118 0.384731,2.97118 0.893434,6.71893 1.130458,8.32831 2.123126,14.4161 2.752454,18.56813 3.138771,20.70825 0.245819,1.36178 0.955497,5.31211 1.577059,8.77848 1.435998,8.00846 1.094204,6.36382 4.303698,20.70826 0.929836,4.15577 2.77508,10.54411 4.746185,16.43153 1.547139,4.62111 6.688608,15.66889 7.585108,16.29857 0.248395,0.17446 0.616543,0.0226 0.818102,-0.33764 0.2015584,-0.36017 0.6856,-0.65485 1.0756442,-0.65485 0.5472332,0 0.6477402,0.30715 0.4401581,1.34506 -0.2319278,1.15965 -0.1155789,1.38358 0.8440859,1.62444 1.4417121,0.36184 1.4166056,0.98901 -0.062098,1.55121 -1.1223507,0.42671 -1.1424557,0.49201 -0.4470729,1.45195 0.4004704,0.55282 1.0741094,1.51158 1.4969762,2.13057 5.2061325,7.62081 14.7063256,16.52004 22.9786455,21.52509 2.855983,1.72796 3.159444,1.75455 3.522355,0.30859 0.332255,-1.3238 1.5354,-1.521 1.5354,-0.25164 0,1.09174 0.804285,1.61595 2.202082,1.43518 0.818868,-0.10583 1.012191,0.0288 0.807473,0.5622 -0.148044,0.38577 -0.116312,0.79588 0.07051,0.91134 0.377679,0.23342 9.000629,1.31642 16.277644,2.04439 2.599785,0.26009 5.775097,0.34579 7.056244,0.19048 1.960759,-0.23771 2.371732,-0.45121 2.597105,-1.34917 0.347884,-1.38609 1.061783,-1.35993 1.60113,0.0587 0.304767,0.80159 0.764201,1.12545 1.596641,1.12545 0.642811,0 1.472617,0.30386 1.844015,0.67526 0.464062,0.46407 1.61563,0.67701 3.681821,0.68084 1.653604,0.003 6.349133,0.30441 10.434509,0.66969 10.925365,0.97687 11.225342,0.95966 11.844006,-0.67936 0.588378,-1.55879 1.297001,-1.54287 1.667405,0.0374 0.172242,0.73486 0.618041,1.13499 1.362953,1.22333 0.608848,0.0721 1.512156,0.30378 2.007353,0.51461 0.495198,0.21085 3.128745,0.61998 5.852328,0.90921 5.907837,0.62737 12.260267,1.60139 16.859927,2.5851 2.3687,0.5066 3.40333,0.5711 3.52054,0.21948 0.0985,-0.29563 0.69592,-0.39199 1.47022,-0.23714 1.09514,0.21903 1.39034,0.0718 1.84133,-0.91794 0.70759,-1.55299 1.25304,-1.49075 1.58741,0.18112 0.1496,0.74795 0.44534,1.46704 0.65722,1.598 0.60758,0.3755 7.18796,-2.64264 10.1187,-4.64101 4.14962,-2.82949 6.79645,-5.36532 9.91337,-9.4976 2.85032,-3.77883 3.28659,-4.71867 2.43476,-5.24513 -0.27809,-0.17187 -0.24022,-0.59397 0.10251,-1.14278 0.44043,-0.70524 0.39825,-1.1161 -0.22245,-2.16686 -0.90998,-1.54047 -0.64824,-1.96822 0.8547,-1.39682 0.95641,0.36364 1.20248,0.24156 1.86698,-0.92624 0.98345,-1.72833 1.3498,-1.70135 1.52467,0.11229 0.11755,1.21912 0.34749,1.48683 1.37906,1.60552 1.57121,0.1808 1.61063,1.24206 0.0606,1.6311 -1.0203,0.25607 -1.1424,0.47048 -0.91511,1.60696 0.31119,1.55596 -0.43002,2.21284 -1.24274,1.10138 -0.53539,-0.73221 -0.62477,-0.71324 -1.32058,0.28018 -0.41048,0.58603 -0.74633,1.32205 -0.74633,1.6356 0,0.63876 -3.41939,5.28816 -5.84296,7.94475 -2.16552,2.37373 -6.11239,5.32287 -9.78164,7.30898 -1.6818,0.91033 -3.2598,1.83972 -3.50666,2.06532 -0.27016,0.24692 9.09303,0.28457 23.52186,0.0946 22.1265,-0.29131 23.9707,-0.2583 23.9707,0.42903 0,0.68046 -1.75475,0.75194 -20.37062,0.82983 -11.20383,0.0468 -22.90286,0.0989 -25.99784,0.11536 l -5.62724,0.0301 -0.14107,1.46021 c -0.16104,1.66693 -0.94608,1.89559 -1.8021,0.52489 z m -151.792998,-1.99267 c 8.294551,-0.1191 35.33906115,-0.3527 60.098913,-0.51898 24.759852,-0.16623 46.233396,-0.33777 47.718987,-0.38111 1.485591,-0.0434 9.993976,-0.12421 18.907525,-0.17971 19.494423,-0.12131 19.513763,-0.58377 0.123203,-2.94702 -7.659668,-0.93351 -7.234006,-0.97817 -6.86105,0.71989 0.278004,1.26574 0.221371,1.37876 -0.526954,1.05179 -1.074621,-0.46955 -2.409227,-0.4665 -3.498342,0.009 -0.767513,0.33437 -0.82963,0.22648 -0.582122,-1.01106 0.204855,-1.02427 0.09292,-1.45605 -0.42947,-1.6565 -1.049102,-0.40258 -25.884971,-2.14153 -26.192555,-1.83394 -0.145118,0.14514 -0.02246,0.65041 0.27261,1.12287 0.754247,1.20775 -0.161758,1.65673 -1.292429,0.63349 -0.855386,-0.77412 -0.943765,-0.77405 -2.257505,0.002 l -1.367261,0.80765 0.147517,-1.50717 0.147517,-1.50719 -8.328314,-0.75467 c -8.858795,-0.80275 -15.996952,-1.67321 -17.057034,-2.07999 -0.477394,-0.1832 -0.578457,0.005 -0.389486,0.72845 0.336539,1.28693 -0.413058,1.70003 -1.424269,0.7849 -0.791175,-0.71581 -2.287629,-0.5588 -2.287629,0.24021 0,0.22111 -0.31305,0.40202 -0.695667,0.40202 -0.545963,0 -0.634492,-0.3261 -0.411392,-1.51534 0.28287,-1.50782 0.260077,-1.53157 -4.593934,-4.78681 -9.1486521,-6.13533 -14.69108646,-11.30206 -20.2021659,-18.83271 -1.4757682,-2.01658 -3.0052157,-3.66878 -3.3987668,-3.67156 -0.3935553,-0.003 -0.9315963,-0.47922 -1.1956493,-1.05873 -0.389629,-0.85514 -0.742565,-1.01518 -1.872979,-0.84927 -1.627848,0.23892 -1.81717,-0.40659 -0.396009,-1.3502 0.960592,-0.63781 0.96897,-0.70447 0.230168,-1.83204 -0.421687,-0.64357 -0.647799,-1.48 -0.502468,-1.85873 0.145331,-0.37872 -0.277625,-1.65547 -0.939902,-2.8372 -2.658514,-4.74376 -5.592399,-12.56181 -8.070685,-21.50633 -2.025004,-7.30855 -2.167414,-7.90304 -4.313568,-18.00716 -1.82001,-8.56862 -3.291597,-16.91357 -5.001368,-28.36128 -0.258857,-1.7332 -0.65863,-4.36674 -0.888383,-5.85234 -0.456593,-2.95237 -1.333673,-9.35309 -2.714246,-19.80787 -0.490435,-3.71398 -1.094508,-8.27205 -1.342386,-10.12904 -0.247873,-1.85698 -0.737671,-5.70602 -1.088439,-8.5534 -0.350765,-2.84738 -0.855195,-6.7977 -1.120958,-8.77849 -0.265764,-1.98079 -0.675674,-5.120789 -0.910912,-6.977778 -0.589991,-4.657468 -2.139651,-14.730086 -2.994681,-19.465062 -0.683425,-3.784665 -0.750975,-3.923684 -1.780975,-3.665174 -1.175797,0.295107 -1.367753,-0.233228 -0.603542,-1.66117 0.388933,-0.726723 0.275969,-0.959791 -0.675269,-1.3932 -1.536354,-0.700012 -1.442338,-1.276321 0.208203,-1.276321 1.036732,0 1.350538,-0.203031 1.350538,-0.873789 0,-0.480584 -0.202582,-0.998993 -0.450179,-1.152018 -0.247599,-0.153029 -0.451665,-0.722077 -0.453479,-1.264562 -0.0051,-1.526486 -4.20375,-14.0749 -6.038298,-18.046565 -2.269992,-4.914375 -6.254316,-10.692812 -9.347398,-13.556455 -2.812669,-2.604039 -7.238962,-5.029308 -9.995134,-5.476573 l -1.727629,-0.280359 0.311361,1.417638 c 0.355939,1.620568 0.192596,1.702415 -1.363174,0.683034 -1.043961,-0.684029 -1.181751,-0.679754 -2.001523,0.06212 -0.72812,0.658944 -1.000902,0.696705 -1.577288,0.21835 -0.919842,-0.763401 -2.272612,0.488232 -5.066735,4.687931 -6.118469,9.196345 -12.625822,31.648272 -16.583091,57.215642 -0.383228,2.475986 -0.869727,5.615984 -1.081109,6.977777 -1.070292,6.895214 -1.419472,9.327474 -2.251342,15.682284 -0.49706,3.79708 -0.78927,7.08902 -0.64935,7.31541 0.13993,0.22639 0.85018,0.41162 1.57837,0.41162 1.557568,0 1.828921,1.1296 0.38169,1.58894 -0.79673,0.25287 -0.89788,0.53569 -0.65487,1.83105 0.22043,1.175 0.13405,1.532 -0.37075,1.532 -0.36198,0 -0.74859,-0.25323 -0.85912,-0.56273 -0.11055,-0.30949 -0.38065,-0.39406 -0.60024,-0.18789 -0.48577,0.45606 -0.49081,4.69294 -0.0603,50.7205 0.78848,84.3055 0.89318,92.9811 1.12675,93.36602 0.22311,0.36769 22.193954,0.23407 66.736456,-0.40587 z M 258.7184,266.52708 c -0.63193,-0.35363 -0.72418,-1.69291 -0.72418,-10.51194 0,-5.55867 -0.11468,-10.10666 -0.25469,-10.10666 -0.14003,0 -0.67309,0.22393 -1.18444,0.49759 -0.87786,0.46983 -0.91313,0.40895 -0.63188,-1.09025 0.24993,-1.33226 0.13255,-1.70425 -0.72882,-2.31099 -0.83072,-0.58512 -0.9056,-0.79872 -0.39226,-1.11901 0.34894,-0.2177 0.87359,-0.30406 1.16587,-0.1919 0.29229,0.11212 0.81711,-0.13986 1.16628,-0.56018 0.75785,-0.91217 0.7902,-5.319 0.30033,-40.91843 -1.0683,-77.63702 -1.41441,-200.58070856 -0.56584,-201.00498913 0.29859,-0.14928649 0.54829,24.18121513 0.74155,72.25375113 0.16027,39.863358 0.40908,78.353678 0.55294,85.534028 0.14394,7.18036 0.38009,28.75521 0.52495,47.94408 0.1448,19.1889 0.36095,35.36554 0.48017,35.9481 0.19536,0.95459 0.38019,1.02855 1.87132,0.74881 2.05422,-0.38536 5.10118,-1.39872 7.75882,-2.5804 4.44072,-1.97452 11.16256,-5.40901 13.50537,-6.90051 1.36178,-0.86695 2.93179,-1.76922 3.48889,-2.00506 1.16807,-0.49448 1.31205,-1.14032 0.33762,-1.51423 -0.3714,-0.14259 -0.67526,-0.58386 -0.67526,-0.98075 0,-0.52197 0.34196,-0.68157 1.23601,-0.57686 1.06233,0.12438 1.307,-0.0738 1.74097,-1.41147 l 0.50498,-1.55622 0.74887,1.4481 0.74883,1.44809 3.47507,-3.00776 c 9.68749,-8.3849 15.70445,-16.03668 21.53656,-27.38815 2.5029,-4.87161 2.9796,-8.2936 1.39533,-10.01649 l -0.93138,-1.01289 h 1.39867 c 1.06049,0 1.47204,-0.24493 1.70203,-1.01292 0.16691,-0.55709 0.66573,-1.31676 1.10862,-1.68816 0.73446,-0.61588 2.65587,-6.60587 5.41525,-16.88172 0.53193,-1.9808 1.13391,-4.20917 1.3378,-4.95198 1.43287,-5.22018 4.77933,-17.52779 5.93659,-21.83368 0.76527,-2.84739 1.77686,-6.59512 2.24798,-8.32832 1.57171,-5.78213 3.12428,-11.6492 4.64593,-17.55698 1.67116,-6.48811 3.41312,-13.10281 4.80143,-18.232254 0.50258,-1.856989 1.06621,-4.085376 1.25245,-4.951971 0.18624,-0.866595 0.57123,-2.436594 0.85556,-3.488889 1.22399,-4.529728 1.41734,-5.476573 1.41734,-6.93997 0,-0.850247 0.25323,-1.804124 0.56273,-2.119722 0.45197,-0.46087 0.31679,-0.771701 -0.68675,-1.57917 -1.40483,-1.130386 -1.21585,-1.628519 0.61792,-1.628519 0.94753,0 1.2785,-0.241511 1.38804,-1.012902 0.0808,-0.568361 0.46251,-1.015892 0.86987,-1.019719 0.39927,-0.0036 1.98665,-1.173973 3.52748,-2.600501 5.69376,-5.271439 11.43262,-6.667273 16.96414,-4.126121 1.89486,0.87049 5.73857,4.373945 6.95095,6.335663 0.54007,0.873866 1.44728,1.765748 2.01594,1.98196 0.57996,0.220498 1.09854,0.84852 1.18101,1.430268 0.11382,0.802985 0.47736,1.069009 1.61011,1.178226 1.60541,0.1548 1.96655,0.937012 0.59782,1.294932 -1.72283,0.450539 -0.94848,4.91411 2.87482,16.571166 0.56844,1.73319 1.48891,4.670608 2.04546,6.527593 0.55662,1.85699 1.87054,6.0099 2.91995,9.22868 1.04943,3.21878 2.7696,8.58716 3.82267,11.92975 1.0531,3.34258 2.27817,7.19161 2.72246,8.5534 0.44423,1.36178 1.85186,5.81856 3.12806,9.90393 1.27616,4.08539 2.49426,7.93441 2.70692,8.55342 0.21264,0.61899 1.6378,5.07575 3.16697,9.90393 4.29062,13.5467 4.606,14.40574 5.28861,14.40574 0.34583,0 0.85822,0.60773 1.13861,1.35054 0.43171,1.14376 0.75313,1.353 2.09921,1.36672 l 1.58951,0.017 -1.28644,1.05224 c -1.04577,0.85537 -1.21873,1.25241 -0.92463,2.12215 0.19899,0.58847 0.30788,1.3462 0.24202,1.68387 -0.43141,2.2117 11.35329,24.7397 16.40084,31.35232 0.85223,1.11654 1.54956,2.13759 1.54956,2.26902 0,0.13136 1.35824,1.90228 3.01836,3.93519 8.45378,10.35228 8.13421,10.03545 8.54346,8.4705 0.3487,-1.33342 0.87474,-1.17833 1.43279,0.42239 0.39286,1.12701 0.69188,1.34671 1.68497,1.23798 1.44935,-0.15875 1.96215,0.79445 0.65127,1.21049 -2.00861,0.63752 -1.10209,2.18774 4.40857,7.53895 2.93349,2.84863 6.92028,6.4402 8.85952,7.98125 3.33411,2.64948 9.84083,7.22171 10.27719,7.22171 0.11076,0 0.41852,-0.62294 0.68395,-1.38429 0.54377,-1.55991 1.40623,-1.38486 1.40623,0.28542 0,0.95574 0.20523,1.09887 1.57562,1.09887 1.74513,0 1.9034,0.24217 0.89022,1.36175 -0.631,0.69726 -0.44341,0.83282 2.36346,1.70773 5.8756,1.83147 12.95097,2.82155 20.34228,2.84658 2.17229,0.007 2.98639,-0.16657 3.28612,-0.70224 0.2192,-0.39161 0.97419,-0.71202 1.67787,-0.71202 0.98923,0 1.34342,-0.25525 1.56181,-1.12545 0.15534,-0.61901 0.48624,-1.12545 0.73523,-1.12545 0.249,0 0.64528,0.50644 0.88063,1.12545 0.32976,0.86729 0.74883,1.12545 1.8271,1.12545 1.56583,0 1.6257,0.82455 0.11502,1.585 -0.73294,0.36896 -0.83494,0.67029 -0.51753,1.52844 0.5142,1.38991 0.17693,1.67482 -1.14502,0.96734 -0.90266,-0.48308 -1.2539,-0.45169 -2.25022,0.20116 -1.17029,0.7668 -1.18065,0.76326 -1.18065,-0.40365 v -1.17721 h -6.08227 c -6.69962,0 -12.44436,-0.76828 -18.15145,-2.4275 -3.08135,-0.89584 -3.78147,-0.97633 -3.98049,-0.45768 -0.20101,0.52383 -0.45701,0.50207 -1.5266,-0.12965 -1.20576,-0.71225 -1.33698,-0.71209 -2.12656,0.002 -1.23331,1.11613 -1.59354,0.93721 -1.27904,-0.63532 0.33673,-1.68367 -0.64867,-2.7308 -5.92607,-6.29743 -4.67913,-3.16225 -8.34083,-6.31757 -14.46156,-12.46157 l -5.13978,-5.15935 -1.30642,0.77173 c -1.603,0.9469 -2.04729,0.60911 -1.22346,-0.93023 0.56822,-1.06173 0.53379,-1.22939 -0.39642,-1.93107 -0.63002,-0.47524 -0.91454,-1.03977 -0.74577,-1.47966 0.15007,-0.39121 -0.005,-0.99061 -0.34245,-1.33205 -5.30253,-5.34855 -13.05745,-16.52761 -19.79258,-28.53187 -2.40788,-4.29164 -7.81465,-15.74112 -8.24715,-17.46431 -0.40772,-1.62461 -0.98714,-1.91767 -1.99248,-1.00781 -1.03311,0.93496 -1.61651,0.19691 -0.90105,-1.13993 0.56606,-1.0577 0.59303,-0.99973 -0.80346,-1.72632 -1.34321,-0.69884 -1.28702,-1.39568 0.11246,-1.39568 0.619,0 1.12546,-0.14718 1.12546,-0.32704 0,-0.17988 -0.7925,-2.6615 -1.76116,-5.5147 -1.709,-5.03414 -3.87896,-11.78208 -5.86646,-18.24285 -0.53314,-1.73317 -1.77992,-5.6835 -2.77058,-8.77848 -0.99066,-3.09498 -2.28164,-7.14659 -2.86877,-9.00359 -1.87927,-5.94343 -7.0539,-22.17701 -8.10772,-25.43512 -0.56061,-1.73319 -1.57004,-4.97448 -2.24319,-7.20286 -0.67312,-2.228391 -1.38423,-4.456776 -1.58018,-4.951974 -0.41924,-1.059425 -2.13187,-6.4528 -3.85974,-12.154836 -0.67523,-2.228388 -1.29999,-4.134778 -1.38831,-4.236429 -0.0883,-0.101645 -0.54683,0.16477 -1.01899,0.592052 -1.02532,0.927892 -1.54934,0.352622 -1.14529,-1.257246 0.21001,-0.836789 0.0441,-1.263843 -0.6615,-1.704617 -1.25884,-0.785963 -1.18866,-1.271716 0.18373,-1.271716 1.61802,0 1.40519,-0.754684 -1.13667,-4.029522 -3.9632,-5.106166 -6.63635,-6.783078 -10.92945,-6.856236 -1.95192,-0.03326 -3.4355,0.23235 -4.82942,0.86465 -2.25807,1.024278 -7.79305,5.474935 -8.53657,6.864191 -0.42665,0.797165 -0.34777,0.906021 0.6564,0.906021 1.37431,0 1.55164,1.159626 0.24093,1.575628 -1.0074,0.319739 -1.11153,0.790064 -0.44896,2.028079 0.65232,1.218883 -0.29504,1.629315 -1.41702,0.613919 -0.88182,-0.798038 -0.92432,-0.796003 -1.42627,0.06845 -0.28455,0.490047 -0.79153,2.106474 -1.12657,3.592065 -0.84178,3.732341 -1.20562,5.206173 -2.50042,10.12903 -0.61869,2.352186 -1.56952,6.099927 -2.11291,8.328311 -0.54347,2.22839 -1.14922,4.45678 -1.34622,4.95197 -0.19696,0.4952 -0.45531,1.40681 -0.57416,2.02581 -0.22667,1.18055 -2.59902,10.27988 -4.57747,17.55698 -0.63947,2.35219 -2.06471,7.72057 -3.16715,11.92975 -1.10245,4.20917 -2.51951,9.47627 -3.149,11.70465 -0.62948,2.22839 -1.52664,5.46968 -1.99371,7.20287 -1.18878,4.41154 -2.04341,7.46589 -3.40106,12.15484 -0.64519,2.22839 -1.56271,5.46968 -2.03886,7.20286 -0.47619,1.7332 -1.27311,4.46803 -1.77091,6.07743 -1.19864,3.87498 -1.17511,4.04868 0.55106,4.06779 l 1.46309,0.017 -1.25735,1.02905 c -1.11946,0.91622 -1.20477,1.16729 -0.77801,2.28978 0.42213,1.11031 0.38414,1.23383 -0.31828,1.03544 -0.43869,-0.12386 -1.07975,-0.30063 -1.42458,-0.39271 -0.4107,-0.10958 -0.9972,0.76445 -1.70011,2.53365 -2.71259,6.82786 -6.97512,14.19755 -12.05057,20.83491 -1.80653,2.36246 -8.43969,9.03867 -12.52056,12.60181 -0.92849,0.81069 -1.68818,1.68984 -1.68818,1.95365 0,0.2638 -0.45581,0.85225 -1.0129,1.30766 -0.81253,0.6642 -0.90157,0.94122 -0.45017,1.40019 1.40046,1.42396 0.17949,2.35015 -1.31511,0.9976 -0.76711,-0.69425 -0.88347,-0.69052 -1.70686,0.0546 -0.48598,0.43981 -1.19874,0.67871 -1.58395,0.53089 -0.39918,-0.15313 -1.71317,0.37881 -3.05547,1.23708 -4.68867,2.99793 -13.34198,7.05831 -20.58736,9.66015 -2.32776,0.83592 -2.46915,0.97232 -2.36172,2.2786 0.0878,1.06791 -0.0684,1.38935 -0.67528,1.38896 -0.73168,-4.6e-4 -0.77932,0.68317 -0.65033,9.33034 0.0766,5.13197 0.23892,9.43059 0.36083,9.5525 0.24227,0.24227 66.87451,0.0333 67.26973,-0.2109 0.13373,-0.0825 17.55559,-0.27863 38.71544,-0.43566 21.15985,-0.15705 53.46345,-0.46615 71.78575,-0.68697 18.32229,-0.22083 41.11261,-0.41121 50.64515,-0.42308 9.53253,-0.0119 21.33285,-0.15092 26.22293,-0.30902 8.06028,-0.26056 8.89104,-0.21839 8.89104,0.45151 0,0.65549 -0.87699,0.74213 -7.76559,0.76714 -4.27108,0.0153 -9.99398,0.0968 -12.71756,0.18082 -2.72359,0.0839 -18.42358,0.27414 -34.88889,0.42266 -72.27671,0.65193 -84.57799,0.77403 -94.98778,0.94287 -6.06617,0.0983 -33.61713,0.31604 -61.22438,0.48371 -27.60723,0.16759 -50.62875,0.35058 -51.15895,0.40654 -0.53019,0.056 -1.28988,-0.0806 -1.68817,-0.30354 z m -374.7049,-43.81576 c -1.25303,-0.87766 -1.73256,-3.40851 -1.06682,-5.63053 0.5525,-1.84408 1.62897,-2.50049 3.37997,-2.06102 2.22871,0.55937 2.86754,5.37275 0.96551,7.27476 -1.28378,1.28379 -1.92454,1.36526 -3.27866,0.41679 z m 2.35784,-3.626 c 0,-1.91327 -0.12208,-2.21339 -0.90036,-2.21339 -0.74249,0 -0.92521,0.34737 -1.0421,1.98119 -0.0916,1.28042 0.0676,2.11381 0.45018,2.35612 1.08566,0.68768 1.49228,0.10889 1.49228,-2.12392 z m -7.42795,1.3789 c 0,-2.17253 -0.13362,-2.58608 -0.90036,-2.78658 -1.23217,-0.32222 -1.13526,-0.68781 0.50348,-1.89938 0.85829,-0.63456 1.51432,-0.85889 1.68817,-0.57727 0.15638,0.25335 0.28434,2.04668 0.28434,3.98517 0,2.99854 -0.11758,3.54727 -0.78782,3.67687 -0.67554,0.13067 -0.78781,-0.21124 -0.78781,-2.39881 z m 362.15347,-0.22654 c -1.57216,-0.58162 -2.18278,-1.7468 -2.14732,-4.09748 0.0398,-2.63727 1.02464,-3.99516 2.89761,-3.99516 0.85832,0 1.50959,0.36507 2.00781,1.12545 0.90833,1.38627 1.19819,1.40477 1.76512,0.11247 0.35428,-0.80753 0.80947,-1.0129 2.2451,-1.0129 1.7097,0 1.83358,0.0951 2.45082,1.88053 1.26565,3.66106 -0.72931,7.11028 -3.40686,5.89031 -0.57885,-0.26374 -1.1713,-0.85394 -1.31654,-1.31157 -0.34165,-1.07643 -1.1261,-1.06894 -1.40915,0.0136 -0.28552,1.09183 -1.91508,1.82823 -3.08659,1.39483 z m 1.50123,-1.88017 c 0.71889,-0.71888 0.68802,-3.13714 -0.0529,-4.15053 -0.55585,-0.76018 -0.64086,-0.76357 -1.35054,-0.0539 -0.8558,0.85579 -0.98525,2.57726 -0.29133,3.87388 0.53905,1.00722 0.93998,1.08542 1.69485,0.33054 z m 6.3602,-0.89716 c 0.54062,-0.95869 0.54846,-1.3682 0.0493,-2.57328 -0.73116,-1.76517 -1.83806,-1.67834 -2.34724,0.18415 -0.41555,1.52 0.34696,3.96154 1.15392,3.69485 0.2756,-0.091 0.79039,-0.67866 1.14401,-1.30572 z m -13.52637,0.87465 c -0.0293,-1.05228 -0.017,-2.18217 0.0277,-2.51086 0.0446,-0.32869 -0.33657,-0.70683 -0.84702,-0.84032 -0.51046,-0.13357 -0.92174,-0.47231 -0.91396,-0.75292 0.0199,-0.71846 2.15247,-2.19108 2.69098,-1.85827 0.24537,0.1516 0.44613,1.98571 0.44613,4.07569 0,3.07762 -0.12829,3.79995 -0.67526,3.79995 -0.48596,0 -0.69024,-0.53641 -0.72862,-1.91327 z m -358.98033,-41.77969 c -0.61106,-0.98872 0.31737,-2.71246 2.05013,-3.8063 0.98571,-0.62226 1.79221,-1.33777 1.79221,-1.59003 0,-0.94772 -1.42542,-0.9672 -2.41975,-0.033 -1.08412,1.01846 -1.63187,0.86848 -1.63187,-0.44687 0,-0.98224 1.65386,-2.20139 2.98632,-2.20139 0.54189,0 1.4721,0.57858 2.06714,1.28574 l 1.08188,1.28575 0.73792,-1.28575 c 1.34842,-2.34948 4.19477,-1.43295 4.67141,1.5042 0.41499,2.55732 -0.13811,4.62957 -1.4186,5.31486 -1.73832,0.93033 -3.20685,0.0259 -3.91797,-2.41288 l -0.5825,-1.99767 -1.79989,1.52252 -1.7999,1.52252 1.68817,0.007 c 1.75685,0.007 2.38461,0.99366 0.97608,1.53416 -1.16322,0.44638 -4.16356,0.31077 -4.48078,-0.20251 z m 9.78484,-2.46854 c 0.63284,-1.38894 0.0212,-3.50617 -1.07392,-3.71707 -0.95351,-0.18362 -1.43841,1.33068 -1.06442,3.32417 0.34451,1.83644 1.39286,2.02906 2.13834,0.3929 z m 346.25903,-0.88569 c -0.36054,-0.93957 0.92954,-2.76536 2.54386,-3.60015 1.52686,-0.78958 1.65444,-1.20746 0.62857,-2.05884 -0.61181,-0.50777 -0.8352,-0.43993 -1.51386,0.45979 -0.79138,1.04917 -1.82002,0.96085 -1.82002,-0.1562 0,-2.08184 4.31806,-2.77575 5.17126,-0.83103 0.56962,1.29836 0.86683,1.27605 1.49952,-0.11246 0.40624,-0.89162 0.84351,-1.12545 2.10467,-1.12545 1.29977,0 1.74865,0.25777 2.4461,1.40462 l 0.8542,1.40463 0.72637,-1.40463 c 0.60026,-1.16077 0.9959,-1.40462 2.27888,-1.40462 1.26388,0 1.68019,0.24691 2.23933,1.32818 1.45987,2.82307 0.34107,6.78081 -1.91327,6.76815 -1.49769,-0.009 -2.05103,-0.35329 -2.77699,-1.73078 l -0.5599,-1.0624 -0.85141,1.40004 c -1.59249,2.61862 -4.50659,1.58729 -5.24223,-1.85528 l -0.3493,-1.63458 -1.68155,1.54459 c -0.92487,0.84952 -1.53261,1.57326 -1.35054,1.60831 0.18206,0.0351 0.83307,0.0858 1.44669,0.11247 0.67766,0.0296 1.17664,0.3581 1.27099,0.83662 0.13306,0.67508 -0.20576,0.78781 -2.36779,0.78781 -1.83323,0 -2.59434,-0.18557 -2.78358,-0.67874 z m 9.72664,-1.54255 c 1.10134,-2.05789 -0.16419,-5.23953 -1.60747,-4.04163 -1.10798,0.91953 -0.52034,4.91239 0.72295,4.91239 0.23017,0 0.62821,-0.39185 0.88452,-0.87076 z m 6.31836,-1.7954 c 0,-1.8122 -0.66276,-2.79891 -1.6305,-2.42757 -0.77287,0.29658 -0.84279,3.79091 -0.0909,4.54281 0.84587,0.84586 1.72139,-0.22997 1.72139,-2.11524 z m -371.74777,-38.55076 c -0.55028,-0.38544 -1.00052,-0.98122 -1.00052,-1.32396 0,-1.0242 0.99517,-1.32119 1.60993,-0.48045 0.63728,0.87153 2.03389,0.80403 2.33926,-0.11314 0.10874,-0.32657 -0.22809,-0.7037 -0.75051,-0.84031 -1.09684,-0.28683 -1.25982,-1.27732 -0.27252,-1.65619 0.79467,-0.30493 0.91511,-1.63791 0.148,-1.63791 -0.29001,0 -0.90253,0.3396 -1.36118,0.75467 -0.62959,0.56977 -0.96104,0.62753 -1.35284,0.23572 -0.3918,-0.3918 -0.3195,-0.7393 0.2951,-1.41844 2.04491,-2.2596 4.59607,-1.26797 4.84782,1.88433 l 0.15333,1.92005 0.61035,-2.17314 c 0.44313,-1.57775 0.90968,-2.28694 1.7029,-2.58852 1.54312,-0.5867 1.78526,-0.53772 2.81712,0.56985 0.70072,0.75215 0.91789,1.59119 0.91789,3.54631 0,2.73484 -0.35256,3.30404 -2.35827,3.80746 -0.97382,0.24441 -1.43615,0.0742 -2.23512,-0.82278 l -1.00734,-1.13091 -1.00466,1.08405 c -1.15681,1.24821 -2.66278,1.38902 -4.09874,0.38324 z m 9.06985,-2.11283 c 0.41948,-1.56526 0.33812,-2.34207 -0.34281,-3.2733 -0.53234,-0.72802 -0.73541,-0.76652 -1.35053,-0.25602 -0.39819,0.33048 -0.72399,1.24457 -0.72399,2.03133 0,2.33082 1.88166,3.49685 2.41733,1.49799 z m 347.4943,-0.43248 c -1.08961,-0.52589 -1.71067,-1.85745 -1.22946,-2.63606 0.19533,-0.31605 0.67349,-0.13867 1.3567,0.50312 0.6022,0.56574 1.35471,0.87617 1.75322,0.72324 0.88007,-0.33772 0.91941,-1.64671 0.0495,-1.64671 -1.02438,0 -1.36351,-0.98287 -0.54552,-1.581 0.82844,-0.60575 0.9992,-1.57025 0.27804,-1.57025 -0.25631,0 -0.94088,0.31115 -1.52126,0.69143 -0.9508,0.62297 -1.0819,0.62197 -1.32449,-0.0102 -0.35949,-0.93676 1.23846,-2.48192 2.56672,-2.48192 1.49338,0 2.72117,1.49073 2.37237,2.88044 -0.15398,0.6138 -0.0767,1.24166 0.17173,1.39523 0.24852,0.15364 0.45184,-0.0466 0.45184,-0.44493 0,-1.22729 1.29259,-3.30149 2.24595,-3.60409 1.38607,-0.43991 2.70916,0.17317 3.20859,1.48679 l 0.45099,1.18621 0.91797,-1.44984 c 1.56346,-2.46931 4.34888,-1.72586 5.12071,1.36677 0.82525,3.30661 -1.33852,6.50546 -3.58658,5.30232 -0.58042,-0.31062 -1.30349,-1.09962 -1.60681,-1.7533 -0.52422,-1.12974 -0.56873,-1.14322 -0.89974,-0.27256 -0.83468,2.1956 -3.61899,2.86572 -4.90634,1.18085 l -0.71965,-0.94186 -1.06017,1.11068 c -1.14103,1.19545 -1.96646,1.32717 -3.54427,0.56567 z m 8.52112,-2.39927 c 0.69606,-1.52762 -0.007,-3.5833 -1.22645,-3.5833 -0.70595,0 -0.91873,0.35487 -1.03112,1.71958 -0.2251,2.73395 1.29087,3.98545 2.25757,1.86372 z m 5.93909,0.43149 c 0.55765,-1.45318 0.28904,-3.81189 -0.46711,-4.10206 -0.8616,-0.33063 -1.84711,0.79311 -1.74104,1.98524 0.21908,2.46196 1.57639,3.76316 2.20815,2.11682 z M -121.24911,83.588049 c -0.22856,-0.910627 -0.51937,-1.076887 -1.71926,-0.982934 -0.99035,0.07755 -1.48485,-0.09911 -1.57362,-0.562184 -0.17148,-0.894488 3.44131,-5.941397 4.09844,-5.725338 0.28182,0.09266 0.57521,1.165546 0.65196,2.384186 0.0768,1.218638 0.3061,2.384279 0.50966,2.590312 0.46114,0.466749 -0.42069,2.904087 -1.15227,3.184824 -0.2969,0.11393 -0.66362,-0.286057 -0.81491,-0.888866 z m -0.25766,-3.147314 c 0,-0.386012 -0.20258,-0.576635 -0.45018,-0.423611 -0.2476,0.15303 -0.45018,0.468853 -0.45018,0.701839 0,0.232985 0.20258,0.42361 0.45018,0.42361 0.2476,0 0.45018,-0.315829 0.45018,-0.701838 z m 4.30953,3.596521 c -0.96749,-0.967493 -1.31633,-2.600113 -1.02295,-4.78747 0.25654,-1.91264 0.69848,-2.420105 2.53111,-2.906429 0.85692,-0.227399 1.31494,-0.0094 2.13611,1.016883 1.30067,1.625475 1.36104,3.94157 0.15436,5.920683 -0.99531,1.632436 -2.60251,1.95244 -3.79862,0.756333 z m 2.62008,-1.806055 c 0.50436,-1.314344 0.27963,-3.223986 -0.45073,-3.830134 -1.46811,-1.218422 -2.44213,2.132054 -1.22232,4.204587 0.34987,0.594431 1.39064,0.36149 1.67305,-0.374453 z m 353.41832,-1.293258 c -1.17712,-1.177113 -1.24093,-1.397171 -1.1156,-3.846982 0.18047,-3.527425 3.03429,-4.909475 4.88669,-2.366529 l 0.89957,1.234899 0.97138,-1.234899 c 1.37003,-1.74173 3.34418,-1.698611 4.27079,0.09327 0.89222,1.725351 0.87728,4.502102 -0.0311,5.799139 -0.98076,1.400225 -3.79663,1.234496 -4.45323,-0.262089 -0.53977,-1.23033 -0.98251,-1.290326 -1.33464,-0.180864 -0.22026,0.693946 -1.95827,1.869035 -2.76441,1.869035 -0.12335,0 -0.72161,-0.497244 -1.32935,-1.104987 z m 2.67366,-2.132377 c 0.56435,-1.596343 -0.007,-3.614006 -0.9718,-3.428316 -1.12847,0.217319 -1.73373,2.32238 -1.0802,3.75674 0.63533,1.394391 1.49139,1.257378 2.052,-0.328424 z m 5.5558,1.069743 c 0.89029,-0.565492 1.15449,-2.902967 0.43746,-3.870396 -0.96657,-1.304097 -2.11887,-0.618771 -2.11887,1.26019 0,2.593105 0.49603,3.363123 1.68141,2.610206 z m -12.35526,0.817084 c -0.16759,-0.640572 -0.61405,-0.900357 -1.54761,-0.900357 -0.72372,0 -1.42316,-0.289254 -1.55969,-0.645013 -0.30905,-0.805388 3.30158,-5.773503 4.02339,-5.536063 0.291,0.09572 0.59189,1.171104 0.66866,2.389744 0.0767,1.218638 0.30613,2.384309 0.50972,2.590389 0.44425,0.449651 -0.74575,3.001659 -1.39967,3.001659 -0.25265,0 -0.5653,-0.405161 -0.6948,-0.900359 z m -0.1305,-2.926163 c 0,-0.371399 -0.20257,-0.675269 -0.45017,-0.675269 -0.2476,0 -0.45018,0.30387 -0.45018,0.675269 0,0.371397 0.20258,0.675269 0.45018,0.675269 0.2476,0 0.45017,-0.303872 0.45017,-0.675269 z M -124.85341,37.831168 c -0.93578,-1.336016 -0.20675,-2.073868 1.26881,-1.284172 1.29419,0.692632 2.07783,0.331197 2.07783,-0.95836 0,-0.828709 -0.20139,-0.906049 -1.80072,-0.691538 l -1.80071,0.241529 v -1.562386 c 0,-2.550977 0.60954,-3.235073 2.80819,-3.151633 2.38807,0.09062 2.75277,1.34293 0.4556,1.564418 -1.33174,0.12841 -2.08876,0.90617 -1.0129,1.040652 0.2476,0.03093 0.64619,0.0816 0.88576,0.112551 0.23958,0.03093 0.83265,0.396244 1.31794,0.811769 0.84921,0.727116 0.90471,0.686391 1.47768,-1.084144 0.70617,-2.182176 1.59121,-2.840627 3.25639,-2.422693 2.47533,0.621269 3.20715,5.436524 1.14034,7.503334 -1.22756,1.227565 -2.10944,1.095006 -3.64399,-0.547739 -1.26224,-1.35123 -1.34172,-1.375355 -1.57625,-0.478494 -0.22749,0.869889 -2.16688,1.90148 -3.57479,1.90148 -0.32041,0 -0.89604,-0.447555 -1.27918,-0.994568 z m 9.37618,-2.242798 c 0.56435,-1.596344 -0.008,-3.614007 -0.97181,-3.428316 -1.12845,0.21732 -1.73372,2.32238 -1.08018,3.75674 0.63532,1.394389 1.49137,1.257377 2.05199,-0.328424 z m 347.00094,-0.454105 c -0.65845,-0.658436 -0.71008,-1.71068 -0.0839,-1.71068 0.25095,0 0.87103,0.253226 1.37795,0.562724 0.78324,0.478198 1.01783,0.433031 1.56189,-0.300702 0.90794,-1.224465 0.0757,-2.10433 -1.66187,-1.756833 l -1.33845,0.267695 0.13969,-2.200062 0.13969,-2.200061 2.17641,-0.138755 c 1.89659,-0.120923 2.15597,-0.03413 2.01753,0.675269 -0.10056,0.51514 -0.56906,0.82276 -1.27605,0.837806 -1.31656,0.02801 -1.75178,0.806346 -0.57823,1.03407 0.44638,0.08662 1.23942,0.551457 1.76233,1.032981 l 0.95074,0.875491 0.26547,-1.63587 c 0.35853,-2.209345 1.03687,-2.906074 2.8294,-2.906074 1.27388,0 1.63716,0.248356 2.32532,1.589728 l 0.81558,1.589725 0.57486,-1.589725 c 0.50349,-1.392395 0.76363,-1.589728 2.09581,-1.589728 1.96493,0 2.92255,1.327556 2.92255,4.051612 0,2.391667 -0.98384,4.051612 -2.40134,4.051612 -1.32059,0 -2.99888,-1.207163 -3.0084,-2.163874 -0.005,-0.49743 -0.33314,-0.253937 -0.94456,0.700794 -1.24013,1.93644 -3.28238,2.033503 -4.73606,0.225088 -0.94741,-1.178618 -1.01142,-1.194811 -1.3346,-0.337633 -0.18672,0.495195 -0.55684,1.049191 -0.82249,1.231099 -0.76414,0.523235 -3.17559,0.398044 -3.76932,-0.195689 z m 9.27345,-3.69756 c -0.10957,-1.49458 -0.30371,-1.839643 -1.03518,-1.839643 -0.74249,0 -0.92521,0.347367 -1.0421,1.98119 -0.0902,1.260028 0.0682,2.110957 0.43506,2.337689 1.01877,0.629634 1.78527,-0.527533 1.64222,-2.479236 z m 6.22377,1.248392 c 0.3729,-1.485717 -0.31251,-3.538214 -1.18153,-3.538214 -0.86904,0 -1.55444,2.052497 -1.18155,3.538214 0.19564,0.779477 0.60237,1.188667 1.18155,1.188667 0.57916,0 0.9859,-0.40919 1.18153,-1.188667 z"
       id="path1034"
       sodipodi:nodetypes="sssssssssssssssssssssssssssssssssssssssssssssssssssssssssscssssssssssssssssssssssssssssssssssscsssssssssccsssssssssssssssssssssssssssssssssssssssssssssssssssssssssssssssssssscsssssssssssssssssscssssssscsssssssssssssssssssscssssssssssssssssssscsssssssssssscscsssssssssssssssscsssssccscsssssssssssscsscssssssssssssssscssssssssssssssssssssscssssssssssssssssssssssssssscsssssssscssssssssssssssssssssssssssssssscccscccsscssscsssssccccssccssssscsssssssssssssssssssssssssscssssssssssssssssscccssssssssssscsssssssssscccssscsssssssssssssssccsssssssssssssscssccsssssssssssssssssscssssssssssscsssscssscsssscsssssssssscssssssscssssssssssssssssssssscccsssccsssssssssssssscssssscsssssccssssssssssssssssscssssssssscccsssccssssssscssssssscsscssscssssccccsccssssssssssssscssscscsscsscssssssssssssscsssssssssscsssssscsccssssssssssssssscsssscsssssscsssssssssssssssssssssssssssssssssssssscsscsssssscsssssscsssssscssssssssscssssssssssssssssssssssscccssssscssscsssscssssssssssssssss" />
    <text
       xml:space="preserve"
       style="font-size:19.2077px;line-height:1;font-family:'Crimson Text';-inkscape-font-specification:'Crimson Text, Normal';letter-spacing:0px;word-spacing:0px;writing-mode:tb-rl;fill:none;stroke:#000000;stroke-width:0.264583px"
       x="261.35611"
       y="305.92239"
       id="text3768"><tspan
         sodipodi:role="line"
         id="tspan3766"
         style="font-weight:bold;fill:#000000;stroke:none"
         x="261.35611"
         y="305.92239">January 1993</tspan></text>
    <text
       xml:space="preserve"
       style="font-size:19.2077px;line-height:1;font-family:'Crimson Text';-inkscape-font-specification:'Crimson Text, Normal';letter-spacing:0px;word-spacing:0px;writing-mode:tb-rl;fill:none;stroke:#000000;stroke-width:0.264583px"
       x="-214.88016"
       y="-280.7782"
       id="text12555"
       transform="scale(-1)"><tspan
         sodipodi:role="line"
         id="tspan12553"
         style="font-weight:bold;fill:#000000;stroke:none"
         x="-280.7782"
         y="-214.88016">Number of incidents reported</tspan></text>
    <text
       xml:space="preserve"
       style="font-size:19.2077px;line-height:1;font-family:'Crimson Text';-inkscape-font-specification:'Crimson Text, Normal';letter-spacing:0px;word-spacing:0px;writing-mode:tb-rl;fill:none;stroke:#000000;stroke-width:0.264583px"
       x="145.58664"
       y="-278.82068"
       id="text14315"
       transform="scale(-1)"><tspan
         sodipodi:role="line"
         id="tspan14313"
         style="font-weight:bold;fill:#000000;stroke:none"
         x="-278.82068"
         y="145.58664">Number of incidents reported</tspan></text>
    <text
       xml:space="preserve"
       style="font-size:19.2077px;line-height:1;font-family:'Crimson Text';-inkscape-font-specification:'Crimson Text, Normal';letter-spacing:0px;word-spacing:0px;writing-mode:tb-rl;fill:none;stroke:#000000;stroke-width:0.264583px"
       x="-101.3901"
       y="305.92239"
       id="text14319"><tspan
         sodipodi:role="line"
         id="tspan14317"
         style="font-weight:bold;fill:#000000;stroke:none"
         x="-101.3901"
         y="305.92239">December 1992</tspan></text>
  </g>
</svg>
